<?xml version="1.0" encoding="iso-8859-1"?>
<!-- Generator: Adobe Illustrator 17.0.0, SVG Export Plug-In . SVG Version: 6.00 Build 0)  -->
<!DOCTYPE svg PUBLIC "-//W3C//DTD SVG 1.1//EN" "http://www.w3.org/Graphics/SVG/1.1/DTD/svg11.dtd">
<svg version="1.1" id="&#x421;&#x43B;&#x43E;&#x439;_1"
	 xmlns="http://www.w3.org/2000/svg" xmlns:xlink="http://www.w3.org/1999/xlink" x="0px" y="0px" width="166px" height="30px"
	 viewBox="0 0 685 120" style="enable-background:new 0 0 685 120;" xml:space="preserve">
<g>
	<path id="XMLID_211_" style="fill:#FFFFFF;" d="M244.628,91.747h-12.274V60.472c0-6.372-1.062-10.976-3.186-13.808
		c-2.676-3.54-7.279-5.31-13.808-5.31c-6.532,0-11.094,1.77-13.69,5.31c-2.125,2.832-3.187,7.436-3.187,13.808v31.275H186.21V60.472
		c0-6.372-1.062-10.976-3.186-13.808c-2.676-3.54-7.279-5.31-13.808-5.31c-6.531,0-11.094,1.77-13.69,5.31
		c-2.125,2.832-3.187,7.436-3.187,13.808v31.275h-12.274V60.531c0-20.888,9.716-31.333,29.151-31.333
		c10.386,0,18.095,3.148,23.131,9.44c4.956-6.293,12.628-9.44,23.013-9.44c19.512,0,29.268,10.445,29.268,31.333V91.747z"/>
	<path id="XMLID_208_" style="fill:#FFFFFF;" d="M311.189,60.531c0,20.812-9.717,31.216-29.15,31.216
		c-19.514,0-29.269-10.404-29.269-31.216c0-20.888,9.755-31.333,29.269-31.333C301.472,29.198,311.189,39.643,311.189,60.531z
		 M298.916,60.531c0-6.392-1.062-11.008-3.186-13.85c-2.596-3.552-7.161-5.327-13.69-5.327c-6.532,0-11.094,1.775-13.691,5.327
		c-2.124,2.842-3.186,7.458-3.186,13.85c0,6.394,1.062,11.011,3.186,13.851c2.597,3.474,7.159,5.209,13.691,5.209
		c6.529,0,11.094-1.735,13.69-5.209C297.854,71.541,298.916,66.925,298.916,60.531z"/>
	<path id="XMLID_206_" style="fill:#FFFFFF;" d="M351.669,91.865c-20.85,0-31.274-7.592-31.274-22.777V4.532h12.274v24.666h19
		v12.156h-19V69.14c0,3.326,1.062,5.78,3.186,7.362c2.91,2.139,8.182,3.207,15.814,3.207V91.865z"/>
	<path id="XMLID_203_" style="fill:#FFFFFF;" d="M415.871,60.531c0,20.812-9.719,31.216-29.151,31.216
		c-19.513,0-29.268-10.404-29.268-31.216c0-20.888,9.755-31.333,29.268-31.333C406.153,29.198,415.871,39.643,415.871,60.531z
		 M403.597,60.531c0-6.392-1.062-11.008-3.186-13.85c-2.596-3.552-7.161-5.327-13.691-5.327c-6.531,0-11.094,1.775-13.69,5.327
		c-2.124,2.842-3.186,7.458-3.186,13.85c0,6.394,1.062,11.011,3.186,13.851c2.596,3.474,7.159,5.209,13.69,5.209
		c6.53,0,11.095-1.735,13.691-5.209C402.535,71.541,403.597,66.925,403.597,60.531z"/>
	<path id="XMLID_201_" style="fill:#FFFFFF;" d="M456.587,41.354c-7.633,0-12.905,1.062-15.815,3.186
		c-2.124,1.575-3.186,4.012-3.186,7.318v39.889h-12.274V51.932c0-15.155,10.424-22.734,31.275-22.734V41.354z"/>
	<path id="XMLID_188_" style="fill:#FFFFFF;" d="M522.439,60.531c0,20.812-9.757,31.216-29.268,31.216
		c-19.435,0-29.151-10.424-29.151-31.275V4.532h12.274v24.666h16.877C512.681,29.198,522.439,39.643,522.439,60.531z
		 M510.165,60.531c0-6.392-1.062-11.008-3.186-13.85c-2.676-3.552-7.279-5.327-13.808-5.327h-16.877v19.177
		c0,6.315,1.062,10.893,3.186,13.733c2.597,3.551,7.159,5.327,13.691,5.327c6.529,0,11.132-1.776,13.808-5.327
		C509.103,71.423,510.165,66.845,510.165,60.531z"/>
	<path id="XMLID_182_" style="fill:#FFFFFF;" d="M560.794,41.354c-7.633,0-12.905,1.062-15.815,3.186
		c-2.124,1.575-3.186,4.012-3.186,7.318v39.889h-12.274V51.932c0-15.155,10.424-22.734,31.275-22.734V41.354z"/>
	<path id="XMLID_174_" style="fill:#FFFFFF;" d="M618.148,72.982c0,12.51-8.458,18.765-25.374,18.765
		c-9.678,0-16.64-2.242-20.889-6.728c-2.912-3.145-4.366-7.157-4.366-12.038c0-4.877,1.455-8.89,4.366-12.038
		c4.249-4.484,11.212-6.726,20.889-6.726c5.743,0,9.56-0.786,11.448-2.36c1.101-0.866,1.652-2.202,1.652-4.013
		c0-1.888-0.552-3.263-1.652-4.13c-1.888-1.573-5.705-2.36-11.448-2.36c-5.664,0-9.442,0.788-11.33,2.36
		c-1.103,0.867-1.652,2.242-1.652,4.13h-12.274c0-4.845,1.455-8.835,4.366-11.962c4.249-4.455,11.212-6.684,20.889-6.684
		c16.916,0,25.374,6.216,25.374,18.646V72.982z M605.874,73.049v-8.328c-3.62,1.26-7.986,1.888-13.1,1.888
		c-5.664,0-9.442,0.754-11.33,2.263c-1.103,0.874-1.652,2.264-1.652,4.169c0,1.907,0.549,3.296,1.652,4.168
		c1.888,1.589,5.665,2.383,11.33,2.383c5.743,0,9.56-0.794,11.448-2.379C605.323,76.34,605.874,74.952,605.874,73.049z"/>
	<path id="XMLID_166_" style="fill:#FFFFFF;" d="M685.065,93.548c0,15.243-9.719,22.864-29.151,22.864h-23.131v-12.156h23.131
		c7.318,0,12.234-1.311,14.753-3.932c1.416-1.431,2.124-3.693,2.124-6.791v-1.787h-16.877c-19.513,0-29.268-10.404-29.268-31.216
		c0-20.888,9.755-31.333,29.268-31.333c19.432,0,29.151,10.45,29.151,31.35V93.548z M672.791,79.591v-19.06
		c0-6.392-1.062-11.008-3.186-13.85c-2.597-3.552-7.161-5.327-13.691-5.327c-6.531,0-11.133,1.775-13.808,5.327
		c-2.124,2.842-3.186,7.458-3.186,13.85c0,6.315,1.062,10.932,3.186,13.851c2.674,3.474,7.277,5.209,13.808,5.209H672.791z"/>
	<g>
		<defs>
			<filter id="Adobe_OpacityMaskFilter" filterUnits="userSpaceOnUse" x="-0.065" y="0.472" width="120" height="120">
				<feFlood  style="flood-color:white;flood-opacity:1" result="back"/>
				<feBlend  in="SourceGraphic" in2="back" mode="normal"/>
			</filter>
		</defs>
		<mask maskUnits="userSpaceOnUse" x="-0.065" y="0.472" width="120" height="120" id="XMLID_2_">
			<g style="filter:url(#Adobe_OpacityMaskFilter);">
				<path id="XMLID_190_" style="fill:#040D0B;" d="M96.806,63.993c-2.184-2.322-5.156-3.874-9.088-4.648
					c3.769-0.453,6.666-1.677,8.508-3.698c1.819-2.018,2.839-4.902,2.839-8.627v-4.273c0-5.625-1.752-9.44-5.068-11.766
					c-3.313-2.329-9.158-3.356-17.342-3.356H20.813L38.411,61.35L20.813,95.071h55.391c9.103,0,15.268-1.987,18.709-4.495
					c3.421-2.501,5.029-7.625,5.029-13.916v-3.925C99.942,69.236,98.966,66.315,96.806,63.993z M81.548,74.033
					c0,1.69-0.203,3.148-1.102,3.905c-0.886,0.761-2.076,1.367-4.06,1.367H43.495l6.142-12.61l2.968-6.099l-3.306-6.515
					l-5.804-11.565h32.229c1.89,0,3.505,0.116,4.337,0.819c0.805,0.72,1.487,1.63,1.487,3.232v2.67c0,1.599-0.683,3.694-1.487,4.417
					c-0.832,0.7-2.447,2-4.337,2H61.073l3.306,6.06l-2.968,5.327h14.975c1.984,0,3.174,0.09,4.06,0.847
					c0.899,0.757,1.102,1.695,1.102,3.386V74.033z"/>
			</g>
		</mask>
		<path id="XMLID_29_" style="mask:url(#XMLID_2_);fill:#FFFFFF;" d="M119.935,13.98v92.987c0,7.457-6.047,13.505-13.508,13.505
			H13.44c-7.46,0-13.505-6.047-13.505-13.505V13.98c0-7.46,6.044-13.508,13.505-13.508h92.987
			C113.888,0.472,119.935,6.52,119.935,13.98z"/>
	</g>
</g>
</svg>
