<?xml version="1.0" encoding="iso-8859-1"?>
<!-- Generator: Adobe Illustrator 17.0.0, SVG Export Plug-In . SVG Version: 6.00 Build 0)  -->
<!DOCTYPE svg PUBLIC "-//W3C//DTD SVG 1.1//EN" "http://www.w3.org/Graphics/SVG/1.1/DTD/svg11.dtd">
<svg version="1.1" id="&#x421;&#x43B;&#x43E;&#x439;_1"
	 xmlns="http://www.w3.org/2000/svg" xmlns:xlink="http://www.w3.org/1999/xlink" x="0px" y="0px" width="36px" height="36px"
	 viewBox="0 0 100 100" style="enable-background:new 0 0 100 100;" xml:space="preserve">
<path id="XMLID_29_" style="fill:#FFFFFF;" d="M100,11.257v77.49C100,94.96,94.96,100,88.743,100h-77.49C5.037,100,0,94.96,0,88.746
	v-77.49C0,5.04,5.037,0,11.254,0h77.49C94.96,0,100,5.04,100,11.257z"/>
<path id="XMLID_190_" style="fill:#D24A43;" d="M80.725,52.934c-1.82-1.935-4.297-3.228-7.573-3.873
	c3.141-0.377,5.555-1.397,7.09-3.082c1.516-1.682,2.366-4.085,2.366-7.189v-3.561c0-4.687-1.46-7.867-4.223-9.805
	c-2.761-1.941-7.632-2.796-14.452-2.796H17.398l14.665,28.104L17.398,78.832h46.159c7.586,0,12.724-1.656,15.591-3.746
	c2.851-2.085,4.191-6.355,4.191-11.597v-3.271C83.339,57.303,82.525,54.869,80.725,52.934z M68.01,61.3
	c0,1.408-0.169,2.623-0.918,3.254c-0.738,0.634-1.73,1.139-3.383,1.139H36.3l5.118-10.508l2.473-5.082l-2.755-5.429L36.3,35.036
	h26.857c1.575,0,2.921,0.096,3.614,0.682c0.67,0.6,1.239,1.358,1.239,2.694v2.225c0,1.332-0.569,3.078-1.239,3.681
	c-0.693,0.583-2.039,1.667-3.614,1.667H50.948l2.755,5.05l-2.473,4.439h12.479c1.654,0,2.645,0.075,3.383,0.706
	c0.749,0.631,0.918,1.413,0.918,2.821V61.3z"/>
</svg>
