<svg xmlns="http://www.w3.org/2000/svg" width="35" height="35" viewBox="0 0 35 35">
  <defs>
    <style>
      .cls-1 {
        fill: #ed1f24;
        fill-rule: evenodd;
      }
    </style>
  </defs>
  <path id="Forma_1" data-name="Forma 1" class="cls-1" d="M454,1226.5a17.5,17.5,0,1,0-29.617,12.61l-0.018.01,0.52,0.46a17.361,17.361,0,0,0,4.013,2.68,1.453,1.453,0,0,0,.183.08c0.181,0.09.363,0.17,0.547,0.25,0.114,0.05.229,0.1,0.344,0.14,0.134,0.06.268,0.11,0.4,0.16l0.418,0.15,0.345,0.12c0.151,0.05.3,0.09,0.455,0.14l0.327,0.09,0.471,0.12c0.109,0.02.22,0.05,0.33,0.07,0.156,0.04.313,0.07,0.471,0.1,0.118,0.02.235,0.04,0.354,0.07,0.151,0.02.3,0.05,0.454,0.07,0.134,0.02.268,0.03,0.4,0.05s0.278,0.03.418,0.05c0.165,0.01.332,0.02,0.5,0.04,0.111,0,.222.01,0.335,0.02,0.281,0.01.564,0.02,0.848,0.02s0.565-.01.847-0.02l0.338-.03,0.491-.03c0.143-.02.284-0.03,0.426-0.05s0.26-.03.389-0.05c0.157-.02.313-0.05,0.468-0.08,0.112-.02.223-0.03,0.334-0.06,0.165-.03.329-0.06,0.492-0.1,0.1-.02.2-0.04,0.3-0.07l0.5-.12,0.287-.09a4.444,4.444,0,0,0,.494-0.15l0.29-.09c0.158-.06.316-0.11,0.472-0.17,0.11-.04.219-0.09,0.328-0.13,0.14-.06.28-0.11,0.418-0.17,0.155-.06.308-0.14,0.461-0.21l0.268-.12a17.747,17.747,0,0,0,3.977-2.64l0.521-.46-0.018-.02A17.442,17.442,0,0,0,454,1226.5Zm-33.833,0a16.333,16.333,0,1,1,27.48,11.92,18.551,18.551,0,0,0-22.327-.03A16.291,16.291,0,0,1,420.167,1226.5Zm26.415,12.84c-0.266.2-.536,0.41-0.813,0.6l-0.22.15c-0.311.21-.629,0.4-0.951,0.58a2.293,2.293,0,0,1-.213.13c-0.348.19-.7,0.37-1.065,0.53l-0.187.09c-0.38.17-.765,0.33-1.156,0.46a0.3,0.3,0,0,1-.087.03,16.832,16.832,0,0,1-2.528.67,0.792,0.792,0,0,1-.152.02c-0.409.07-.822,0.13-1.237,0.16-0.066.01-.131,0.01-0.2,0.02-0.423.03-.849,0.05-1.276,0.05s-0.856-.02-1.281-0.05c-0.067-.01-0.133-0.01-0.2-0.02-0.415-.03-0.827-0.09-1.235-0.16l-0.167-.03c-0.424-.07-0.846-0.16-1.262-0.27h-0.007q-0.632-.165-1.249-0.39l-0.1-.03c-0.386-.14-0.765-0.3-1.139-0.46-0.071-.03-0.142-0.07-0.213-0.1-0.353-.16-0.7-0.34-1.042-0.53-0.082-.04-0.162-0.09-0.244-0.14-0.327-.19-0.649-0.38-0.963-0.59-0.075-.06-0.148-0.11-0.223-0.16-0.27-.19-0.534-0.39-0.793-0.59-0.058-.05-0.116-0.09-0.174-0.14a17.415,17.415,0,0,1,20.552.03C446.7,1239.24,446.641,1239.29,446.582,1239.34ZM436.5,1213.67a0.583,0.583,0,0,0,.583-0.59v-1.16a0.583,0.583,0,1,0-1.166,0v1.16A0.583,0.583,0,0,0,436.5,1213.67Zm13.125,12.83a0.582,0.582,0,0,0,.583.58h1.167a0.58,0.58,0,1,0,0-1.16h-1.167A0.582,0.582,0,0,0,449.625,1226.5Zm-26.25,0a0.582,0.582,0,0,0-.583-0.58h-1.167a0.58,0.58,0,1,0,0,1.16h1.167A0.582,0.582,0,0,0,423.375,1226.5Zm19.687-11.08a0.519,0.519,0,0,0,.291.08,0.575,0.575,0,0,0,.506-0.29l0.584-1.01a0.583,0.583,0,1,0-1.011-.58l-0.583,1.01A0.574,0.574,0,0,0,443.062,1215.42Zm6.612,18.3-1.01-.58a0.583,0.583,0,1,0-.584,1.01l1.011,0.58a0.515,0.515,0,0,0,.291.08,0.574,0.574,0,0,0,.5-0.29A0.586,0.586,0,0,0,449.674,1233.72Zm-26.348-13.86,1.01,0.58a0.519,0.519,0,0,0,.291.08,0.575,0.575,0,0,0,.506-0.29,0.587,0.587,0,0,0-.213-0.8l-1.011-.58A0.583,0.583,0,1,0,423.326,1219.86Zm5.812-4.67a0.575,0.575,0,0,0,.5.29,0.6,0.6,0,0,0,.292-0.07,0.588,0.588,0,0,0,.213-0.8l-0.583-1.01a0.583,0.583,0,1,0-1.011.58Zm19.086,5.06a0.613,0.613,0,0,0,.291-0.08l1.01-.58a0.586,0.586,0,0,0,.214-0.8,0.575,0.575,0,0,0-.8-0.21l-1.01.58a0.586,0.586,0,0,0-.213.8A0.594,0.594,0,0,0,448.224,1220.25Zm-23.239,12.83a0.583,0.583,0,0,0-.8-0.21l-1.01.58a0.586,0.586,0,0,0-.213.8,0.575,0.575,0,0,0,.506.29,0.616,0.616,0,0,0,.291-0.08l1.009-.58A0.587,0.587,0,0,0,424.985,1233.08Zm11.515-4.9a2.327,2.327,0,0,0,2.333-2.33,2.287,2.287,0,0,0-.265-1.06l4.944-4.95a0.582,0.582,0,1,0-.825-0.82l-4.892,4.89a2.392,2.392,0,0,0-2.944.29,2.3,2.3,0,0,0-.684,1.65A2.327,2.327,0,0,0,436.5,1228.18Zm-0.825-3.16a1.167,1.167,0,1,1,1.65,1.65,1.2,1.2,0,0,1-1.65,0A1.166,1.166,0,0,1,435.675,1225.02Z" transform="translate(-419 -1209)"/>
</svg>
