<svg xmlns="http://www.w3.org/2000/svg" width="35" height="33" viewBox="0 0 35 33">
  <defs>
    <style>
      .cls-1 {
        fill: #ed1f24;
        fill-rule: evenodd;
      }
    </style>
  </defs>
  <path class="cls-1" d="M759.733,1219.9l-6.2-9.17a1.725,1.725,0,0,0-1.4-.73h-17.6a1.643,1.643,0,0,0-1.4.79l-0.887,1.31-1.846-1.44a1.294,1.294,0,0,0-1.134-.26,1.232,1.232,0,0,0-.933.52l-3,3.96a1.487,1.487,0,0,0,.267,2.12l2.2,1.68-0.866,1.29a1.485,1.485,0,0,0-.267.92v20.46a1.645,1.645,0,0,0,1.667,1.65h30a1.661,1.661,0,0,0,1.667-1.72v-20.46A1.485,1.485,0,0,0,759.733,1219.9Zm-31.2-2.31-2.134-1.65a0.4,0.4,0,0,1-.067-0.26l3-3.96c0-.07.067-0.07,0.133-0.07s0.134,0,.134.07l1.929,1.44-1.5,2.22Zm30.137,23.76a0.312,0.312,0,0,1-.333.33h-30a0.313,0.313,0,0,1-.334-0.33v-20.46a0.244,0.244,0,0,1,.067-0.2l0.8-1.19h0l0.44-.66,4.961-7.39a0.366,0.366,0,0,1,.267-0.13h17.6a0.368,0.368,0,0,1,.267.13l6.2,9.24a0.246,0.246,0,0,1,.066.2v20.46h0ZM746.8,1224.52h-6.934a1.191,1.191,0,0,0-1.2,1.19v5.54a1.191,1.191,0,0,0,1.2,1.19H746.8a1.191,1.191,0,0,0,1.2-1.19v-5.54A1.191,1.191,0,0,0,746.8,1224.52Zm-0.133,6.6H740v-5.28h6.668v5.28ZM735.13,1220.1a0.64,0.64,0,0,0-.934,0,0.63,0.63,0,0,0,0,.92l2.667,2.64a0.645,0.645,0,0,0,.934,0,0.63,0.63,0,0,0,0-.92Zm16.4,0-2.667,2.64a0.628,0.628,0,0,0,0,.92,0.644,0.644,0,0,0,.933,0l2.667-2.64a0.628,0.628,0,0,0,0-.92A0.639,0.639,0,0,0,751.532,1220.1Zm-1.734,13.2a0.639,0.639,0,0,0-.933,0,0.628,0.628,0,0,0,0,.92l2.667,2.64a0.644,0.644,0,0,0,.933,0,0.628,0.628,0,0,0,0-.92Zm-12.935,0-2.667,2.64a0.63,0.63,0,0,0,0,.92,0.645,0.645,0,0,0,.934,0l2.667-2.64a0.63,0.63,0,0,0,0-.92A0.64,0.64,0,0,0,736.863,1233.3Zm0.667-15.38H749.2a1.488,1.488,0,0,0,1.467-1.52v-1.65a1.472,1.472,0,0,0-1.467-1.45H737.53a1.472,1.472,0,0,0-1.467,1.45v1.72A1.472,1.472,0,0,0,737.53,1217.92Zm-0.133-3.17a0.145,0.145,0,0,1,.133-0.13H749.2a0.146,0.146,0,0,1,.134.13v1.65a0.138,0.138,0,0,1-.134.13H737.53a0.137,0.137,0,0,1-.133-0.13v-1.65Z" transform="translate(-725 -1210)"/>
</svg>
