<svg xmlns="http://www.w3.org/2000/svg" width="32" height="35" viewBox="0 0 32 35">
  <defs>
    <style>
      .cls-1 {
        fill: #ed1f24;
        fill-rule: evenodd;
      }
    </style>
  </defs>
  <path id="Forma_1" data-name="Forma 1" class="cls-1" d="M289.468,1226.82l-7.511-5.46a0.578,0.578,0,0,0-.75.06,0.593,0.593,0,0,0-.061.76l5.435,7.55a2.076,2.076,0,0,0,1.51.85h0.162a2.026,2.026,0,0,0,1.462-.61A2.085,2.085,0,0,0,289.468,1226.82Zm-0.573,2.33a0.9,0.9,0,0,1-.713.26,0.883,0.883,0,0,1-.662-0.37l-3.315-4.6,4.581,3.33a0.9,0.9,0,0,1,.371.66A0.92,0.92,0,0,1,288.9,1229.15Zm14.238-4.97v-0.01h0a15.8,15.8,0,0,0-1.549-3.76,0.268,0.268,0,0,1-.013-0.04c-0.007-.01-0.018-0.01-0.026-0.02a15.409,15.409,0,0,0-2.069-2.81l1.246-1.25,0.821,0.82,2.461-2.47-2.461-2.48-2.462,2.48,0.82,0.82-1.245,1.26a14.964,14.964,0,0,0-2.791-2.08c-0.011-.01-0.017-0.02-0.029-0.03a0.051,0.051,0,0,0-.037-0.01,15.334,15.334,0,0,0-3.735-1.56h-0.012a14.723,14.723,0,0,0-2.308-.44v-0.68h0.87a1.46,1.46,0,0,0,0-2.92h-5.222a1.46,1.46,0,0,0,0,2.92h0.87v0.68a14.7,14.7,0,0,0-2.308.44h-0.012a15.754,15.754,0,0,0-3.735,1.56,0.056,0.056,0,0,0-.038.01c-0.011.01-.018,0.02-0.029,0.03a15.41,15.41,0,0,0-2.79,2.08l-1.246-1.26,0.821-.82-2.462-2.48L272,1214.64l2.462,2.47,0.821-.82,1.245,1.25a15.451,15.451,0,0,0-2.068,2.81c-0.008.01-.019,0.01-0.026,0.02a0.294,0.294,0,0,1-.012.04,15.761,15.761,0,0,0-1.55,3.76h0v0.01a15.791,15.791,0,0,0,0,8.14,0.016,0.016,0,0,1,0,.01h0a15.8,15.8,0,0,0,1.549,3.76c0.006,0.01.006,0.02,0.013,0.03s0.024,0.03.035,0.05a15.973,15.973,0,0,0,2.431,3.18c0.01,0.01.013,0.03,0.024,0.04s0.023,0.01.034,0.02a15.691,15.691,0,0,0,3.181,2.45c0.011,0.01.018,0.02,0.029,0.03s0.037,0.01.055,0.02a15.6,15.6,0,0,0,3.718,1.55h0.015a15.428,15.428,0,0,0,8.092,0h0.015a15.638,15.638,0,0,0,3.718-1.55c0.018-.01.037-0.01,0.054-0.02s0.018-.02.029-0.03a15.664,15.664,0,0,0,3.181-2.45c0.011-.01.025-0.01,0.035-0.02s0.014-.03.023-0.04a15.94,15.94,0,0,0,2.432-3.18c0.011-.02.025-0.03,0.035-0.05s0.006-.02.013-0.03a15.8,15.8,0,0,0,1.548-3.76h0v-0.01A15.777,15.777,0,0,0,303.133,1224.18Zm-1.593-10.37,0.82,0.83-0.82.82-0.821-.82Zm-27.9.83,0.821-.83,0.821,0.83-0.821.82Zm27.1,17.65,1.112,0.3a14.76,14.76,0,0,1-1.014,2.44l-0.991-.58a0.582,0.582,0,0,0-.58,1.01l0.988,0.58a14.545,14.545,0,0,1-1.6,2.09l-0.806-.81a0.584,0.584,0,0,0-.821.83l0.806,0.81a14.2,14.2,0,0,1-2.086,1.61l-0.571-.99a0.581,0.581,0,0,0-.792-0.22,0.587,0.587,0,0,0-.213.8l0.572,1a13.829,13.829,0,0,1-2.43,1.01l-0.3-1.11a0.58,0.58,0,0,0-1.121.3l0.3,1.11a14.043,14.043,0,0,1-2.61.35v-1.15a0.58,0.58,0,1,0-1.16,0v1.15a14.032,14.032,0,0,1-2.61-.35l0.3-1.11a0.58,0.58,0,0,0-1.121-.3l-0.3,1.11a13.892,13.892,0,0,1-2.43-1.01l0.572-1a0.588,0.588,0,0,0-.212-0.8,0.581,0.581,0,0,0-.793.22l-0.57.99a14.2,14.2,0,0,1-2.087-1.61l0.806-.81a0.583,0.583,0,0,0-.82-0.83l-0.806.81a14.624,14.624,0,0,1-1.6-2.09l0.988-.58a0.576,0.576,0,0,0,.213-0.79,0.582,0.582,0,0,0-.793-0.22l-0.99.58a14.59,14.59,0,0,1-1.014-2.44l1.111-.3a0.593,0.593,0,0,0,.41-0.72,0.573,0.573,0,0,0-.71-0.41l-1.108.3a14.669,14.669,0,0,1-.343-2.63h1.146a0.58,0.58,0,1,0,0-1.16h-1.146a14.669,14.669,0,0,1,.343-2.63l1.108,0.3a0.782,0.782,0,0,0,.151.02,0.579,0.579,0,0,0,.559-0.43,0.592,0.592,0,0,0-.41-0.72l-1.111-.3a14.59,14.59,0,0,1,1.014-2.44l0.99,0.58a0.6,0.6,0,0,0,.289.07,0.571,0.571,0,0,0,.5-0.29,0.577,0.577,0,0,0-.212-0.79l-0.988-.58a15.21,15.21,0,0,1,1.6-2.1l0.806,0.82a0.584,0.584,0,0,0,.821-0.83l-0.806-.81a14.2,14.2,0,0,1,2.086-1.61l0.571,0.99a0.572,0.572,0,0,0,.5.29,0.593,0.593,0,0,0,.289-0.07,0.587,0.587,0,0,0,.213-0.8l-0.572-1a14.671,14.671,0,0,1,2.43-1.02l0.3,1.12a0.579,0.579,0,0,0,.56.43,0.394,0.394,0,0,0,.151-0.02,0.58,0.58,0,0,0,.411-0.71l-0.3-1.11a14.377,14.377,0,0,1,2.089-.32l0.5-.03h0.023v1.15a0.58,0.58,0,1,0,1.16,0v-1.15H288.6l0.5,0.03a14.377,14.377,0,0,1,2.089.32l-0.3,1.11a0.578,0.578,0,0,0,.41.71,0.4,0.4,0,0,0,.151.02,0.579,0.579,0,0,0,.56-0.43l0.3-1.12a14.707,14.707,0,0,1,2.43,1.02l-0.572,1a0.589,0.589,0,0,0,.212.8,0.6,0.6,0,0,0,.29.07,0.573,0.573,0,0,0,.5-0.29l0.57-.99a14.151,14.151,0,0,1,2.087,1.61l-0.806.81a0.583,0.583,0,1,0,.82.83l0.806-.82a15.218,15.218,0,0,1,1.6,2.1l-0.988.58a0.579,0.579,0,0,0,.29,1.08,0.6,0.6,0,0,0,.29-0.07l0.99-.58a14.59,14.59,0,0,1,1.014,2.44l-1.111.3a0.593,0.593,0,0,0-.41.72,0.578,0.578,0,0,0,.56.43,0.792,0.792,0,0,0,.151-0.02l1.107-.3a14.579,14.579,0,0,1,.343,2.63h-1.146a0.58,0.58,0,1,0,0,1.16h1.146a14.76,14.76,0,0,1-.343,2.63l-1.108-.3a0.583,0.583,0,0,0-.711.41A0.593,0.593,0,0,0,300.74,1232.29Zm-13.32-19.78v-1.76h-2.031a0.29,0.29,0,1,1,0-.58h5.222a0.29,0.29,0,0,1,0,.58H288.58v1.76c-0.2-.01-0.394-0.01-0.58-0.01S287.623,1212.5,287.42,1212.51Z" transform="translate(-272 -1209)"/>
</svg>
