<svg xmlns="http://www.w3.org/2000/svg" width="22" height="15" viewBox="0 0 22 15">
  <defs>
    <style>
      .i-speed {
        fill: #ed1f24;
        fill-rule: evenodd;
      }
    </style>
  </defs>
  <path class="i-speed" d="M947,540.894c0-.049,0-0.1,0-0.149l-0.006-.151v-0.113l0-.063-0.018-.251,0-.063-0.008-.083c0-.054-0.009-0.109-0.014-0.164s-0.011-.109-0.016-0.163c0-.027,0-0.054-0.008-0.081l-0.009-.075c-0.027-.2-0.05-0.393-0.084-0.58-0.016-.093-0.031-0.185-0.047-0.275l-0.053-.262c-0.032-.17-0.073-0.329-0.107-0.477-0.009-.037-0.018-0.072-0.026-0.108s-0.019-.069-0.028-0.1l-0.051-.189c-0.017-.059-0.031-0.114-0.046-0.165l-0.043-.139-0.048-.155a0.114,0.114,0,0,0-.14-0.078l-3.72,1.1a0.121,0.121,0,0,0-.081.136l0.014,0.076c0.006,0.03.011,0.062,0.018,0.1s0.011,0.074.017,0.114,0.012,0.084.019,0.13c0,0.022.007,0.045,0.01,0.069s0,0.049.008,0.074c0.01,0.1.026,0.208,0.033,0.324,0,0.057.009,0.116,0.014,0.177s0,0.122.008,0.185c0.008,0.125.007,0.255,0.009,0.387v0.049l0,0.043,0,0.087c0,0.029,0,.058,0,0.087v0.043l0,0.063c0,0.084-.007.168-0.01,0.251l0,0.063v0.01a0.371,0.371,0,0,1,0-.039v0.016l0,0.025-0.009.1c0,0.033,0,.065-0.008.1s-0.007.064-.011,0.1c-0.008.064-.013,0.127-0.022,0.188s-0.017.122-.026,0.181-0.019.116-.029,0.172-0.019.11-.029,0.162-0.019.1-.03,0.151-0.021.094-.031,0.137c0,0.022-.01.043-0.014,0.063s-0.009.035-.014,0.051,0,0.02-.007.03h4.549a0.116,0.116,0,0,0,.114-0.113v0q0.006-.13.012-0.27c0-.092,0-0.186,0-0.281s0-.193,0-0.291C947,540.993,947,540.944,947,540.894Zm-1.183-4.951a0.12,0.12,0,0,0,.061-0.16c-0.013-.027-0.027-0.059-0.044-0.1l-0.052-.112-0.078-.166c-0.029-.06-0.059-0.122-0.09-0.189-0.017-.034-0.032-0.062-0.049-0.1s-0.033-.064-0.051-0.1c-0.034-.066-0.07-0.134-0.108-0.205l-0.121-.216-0.064-.113c-0.023-.037-0.045-0.075-0.068-0.113-0.047-.076-0.094-0.154-0.142-0.233-0.1-.155-0.2-0.317-0.315-0.475l-0.083-.119-0.042-.06-0.044-.059-0.175-.236c-0.06-.077-0.121-0.153-0.182-0.23-0.03-.038-0.06-0.076-0.091-0.113l-0.094-.111-0.093-.109c-0.03-.037-0.061-0.072-0.093-0.107l-0.187-.206c-0.061-.068-0.125-0.131-0.185-0.194s-0.12-.125-0.181-0.183l-0.174-.169c-0.056-.055-0.113-0.1-0.166-0.154l-0.154-.139-0.143-.122-0.125-.107c-0.039-.033-0.076-0.061-0.109-0.088l-0.12-.1a0.111,0.111,0,0,0-.157.019l-2,2.5a0.123,0.123,0,0,0,.008.16l0.058,0.059c0.02,0.021.044,0.044,0.069,0.071l0.078,0.087c0.029,0.03.059,0.063,0.09,0.1s0.063,0.072.1,0.112,0.07,0.078.1,0.122l0.107,0.134c0.038,0.045.074,0.094,0.111,0.143s0.076,0.1.113,0.152l0.112,0.16c0.019,0.026.038,0.054,0.056,0.082s0.036,0.056.055,0.084l0.055,0.085c0.019,0.028.036,0.058,0.054,0.087,0.035,0.058.072,0.116,0.106,0.174l0.1,0.179,0.025,0.044,0.024,0.045c0.015,0.03.031,0.059,0.047,0.089,0.064,0.117.119,0.238,0.176,0.352l0.077,0.172,0.038,0.083,0.033,0.082,0.066,0.157c0.019,0.052.038,0.1,0.056,0.149,0.009,0.024.018,0.047,0.026,0.07s0.018,0.046.024,0.065L942.1,537l0.033,0.1c0.013,0.041.026,0.079,0.037,0.113l0.032,0.1a0.113,0.113,0,0,0,.151.072Zm-10.166-4.475,0.1,0.014,0.117,0.021L936,531.527c0.04,0.007.082,0.017,0.126,0.027l1.26-2.672-0.185-.03c-0.042-.007-0.083-0.014-0.123-0.019l-0.121-.015-0.231-.029-0.217-.019c-0.07-.006-0.136-0.013-0.2-0.016l-0.18-.009-0.158-.008-0.134,0-0.144,0a0.116,0.116,0,0,0-.116.113l-0.114,2.487a0.117,0.117,0,0,0,.1.123Zm3.386,1.37,0.1,0.072,0.085,0.063,0.045,0.035,0.045,0.034,0.082,0.063a0.112,0.112,0,0,0,.164-0.03l1.644-2.6a0.119,0.119,0,0,0-.038-0.167l-0.089-.053-0.048-.029-0.058-.034-0.152-.086-0.172-.1-0.182-.094c-0.064-.033-0.129-0.068-0.2-0.1l-0.214-.1c-0.074-.036-0.151-0.068-0.229-0.1s-0.158-.07-0.241-0.1l-0.063-.025-0.71,3.194c0.039,0.026.076,0.053,0.113,0.077Zm-5.6-1.383c0.032,0,.063-0.01.1-0.013l0.092-.01,0.176-.019,0.166-.011,0.077-.006c0.025,0,.051,0,0.072,0l0.127,0,0.111,0h0.219a0.117,0.117,0,0,0,.113-0.126l-0.148-2.343a0.115,0.115,0,0,0-.128-0.11l-0.1.013-0.118.016-0.164.025-0.186.029c-0.034,0-.065.012-0.1,0.018l-0.1.02-0.21.042-0.224.053-0.116.027-0.118.032-0.244.067-0.249.078c-0.042.014-.084,0.026-0.126,0.041l-0.127.045-0.127.045c-0.043.015-.085,0.03-0.128,0.047l-0.253.1c-0.085.034-.168,0.072-0.251,0.108l-0.124.054-0.122.059-0.12.057-0.118.059-0.23.121c-0.075.039-.147,0.082-0.219,0.122s-0.141.079-.207,0.121l-0.193.119c-0.062.038-.12,0.079-0.177,0.115l-0.162.108-0.143.1-0.126.09c-0.039.027-.073,0.055-0.105,0.078l-0.108.084a0.121,0.121,0,0,0-.027.162l0.939,1.43a0.11,0.11,0,0,0,.15.036l0.084-.049c0.028-.016.058-0.035,0.092-0.053l0.111-.06,0.125-.068,0.142-.07c0.049-.024.1-0.052,0.154-0.075l0.166-.076c0.057-.027.117-0.051,0.177-0.076s0.122-.052.186-0.076l0.194-.072c0.033-.013.066-0.024,0.1-0.035l0.1-.034,0.1-.034,0.1-.03c0.069-.02.137-0.042,0.207-0.06l0.208-.054c0.035-.009.069-0.017,0.1-0.024l0.1-.023,0.1-.022,0.1-.019,0.2-.036Zm-6.4,1.849-0.074.109-0.075.109-0.072.113c-0.047.075-.1,0.15-0.143,0.226l-0.136.23-0.034.057-0.032.058-0.064.116c-0.086.153-.162,0.309-0.238,0.457-0.036.075-.071,0.15-0.105,0.222l-0.05.108-0.047.107c-0.03.07-.059,0.138-0.088,0.2l-0.077.193c-0.024.062-.049,0.121-0.07,0.178s-0.04.111-.058,0.162-0.036.1-.051,0.142-0.028.086-.041,0.123-0.029.09-.04,0.124a0.12,0.12,0,0,0,.067.148l0.874,0.347a0.114,0.114,0,0,0,.144-0.059c0.012-.028.028-0.061,0.045-0.1s0.031-.066.048-0.1l0.06-.12c0.022-.043.044-0.089,0.068-0.137s0.052-.1.08-0.148l0.087-.162,0.1-.169,0.051-.088,0.055-.088,0.114-.183c0.082-.12.162-0.247,0.253-0.37l0.067-.093,0.033-.046,0.035-.046,0.141-.183c0.048-.061.1-0.12,0.145-0.179,0.025-.03.048-0.06,0.073-0.088l0.075-.086,0.074-.085c0.024-.028.049-0.056,0.074-0.082l0.149-.16c0.048-.052.1-0.1,0.147-0.149s0.1-.1.143-0.141,0.094-.088.138-0.131,0.09-.079.132-0.117l0.121-.108,0.108-.088,0.094-.078,0.047-.037,0.044-.035c0.031-.024.059-0.045,0.082-0.064a0.121,0.121,0,0,0,.018-0.171l-0.994-1.208a0.111,0.111,0,0,0-.166-0.008l-0.074.073-0.04.04-0.046.047L928.1,532l-0.124.131-0.129.144c-0.044.051-.092,0.1-0.138,0.158l-0.144.173c-0.05.059-.1,0.122-0.148,0.185s-0.1.128-.151,0.2l-0.15.207C927.091,533.232,927.066,533.268,927.042,533.3Zm-1.807,4.235c-0.006.03-.013,0.064-0.02,0.1s-0.015.076-.024,0.119-0.016.1-.025,0.151-0.019.111-.029,0.172l-0.015.093-0.012.1c-0.017.131-.038,0.272-0.051,0.423-0.007.074-.014,0.151-0.022,0.23s-0.01.16-.015,0.242c-0.013.163-.015,0.333-0.02,0.5l0,0.065V539.8c0,0.043,0,.086,0,0.13s0,0.086,0,.13v0.065l0,0.066c0,0.087.007,0.173,0.011,0.26l0,0.065v0.036l0,0.031,0.009,0.125,0.009,0.123,0.012,0.128,0.012,0.125,0.006,0.063c0,0.02,0,.04.007,0.06,0.01,0.081.02,0.16,0.029,0.237s0.023,0.153.034,0.226,0.023,0.145.035,0.213l0,0.017a0.115,0.115,0,0,0,.112.1H925.6a0.117,0.117,0,0,0,.114-0.126l0-.055c0-.066-0.009-0.134-0.01-0.2s0-.142-0.007-0.216,0-.149,0-0.226c0-.019,0-0.038,0-0.058s0-.038,0-0.057c0-.038,0-0.076,0-0.115l0-.117c0-.041,0-0.082,0-0.124l0.006-.124V540.52l0-.061,0.018-.243,0.005-.061,0.007-.06c0-.041.009-0.081,0.013-0.121s0.009-.08.014-0.12l0.006-.06,0.009-.059c0.023-.158.043-0.313,0.072-0.462,0.014-.074.026-0.148,0.04-0.219s0.031-.14.045-0.208c0.027-.135.062-0.261,0.091-0.378,0.007-.029.014-0.058,0.021-0.085s0.015-.054.022-0.08c0.015-.051.029-0.1,0.042-0.145s0.025-.087.038-0.129,0.026-.08.037-0.116l0.032-.1a0.118,0.118,0,0,0-.079-0.151l-0.772-.214A0.114,0.114,0,0,0,925.235,537.539Zm8.734,4.147a1.72,1.72,0,0,0,.779.187,1.77,1.77,0,0,0,1.6-1.033,2,2,0,0,0,.135-0.395l1.8-8.085,0.684-3.08,0.424-1.907a0.3,0.3,0,0,0-.292-0.373,0.278,0.278,0,0,0-.257.171L937.973,529l-1.272,2.7-3.547,7.524A1.873,1.873,0,0,0,933.969,541.686Zm0.845-2.6a0.9,0.9,0,1,1-.871.9A0.886,0.886,0,0,1,934.814,539.082Z" transform="translate(-925 -527)"/>
</svg>
