<svg xmlns="http://www.w3.org/2000/svg" width="19" height="16" viewBox="0 0 19 16">
  <defs>
    <style>
      .cls-1 {
        fill: #ee2f33;
        fill-rule: evenodd;
      }
    </style>
  </defs>
  <path id="Shape_1_copy_5" data-name="Shape 1 copy 5" class="cls-1" d="M249.217,1642.79h0a8.559,8.559,0,0,0,.611-1.2,1.854,1.854,0,0,0,.552.09c1.7,0,2.619-2.71,2.619-2.71a4.609,4.609,0,0,0-.516-0.02,3.536,3.536,0,0,0-2.065.55,10.59,10.59,0,0,0,.132-1.58c1.879-.3,1.4-3.34,1.4-3.34a3.729,3.729,0,0,0-1.6,1.12,10.968,10.968,0,0,0-.266-1.12c0.458-1.61-2.2-2.58-2.2-2.58-0.235,2.09.848,2.78,1.5,3a9.8,9.8,0,0,1,.342,1.93,6.688,6.688,0,0,0-1.873-1.34c-0.552,2.82,1.091,3.65,1.771,3.87-0.017.1-.036,0.2-0.056,0.3a8.357,8.357,0,0,1-.54,1.69,6.638,6.638,0,0,0-1.111-2.25c-1.833,2.29-.816,3.82-0.28,4.38a8.365,8.365,0,0,1-1.436,1.27,6.163,6.163,0,0,0-.228-2.79c-2.392,1.47-2.106,3.16-1.8,3.93-0.217.1-.44,0.19-0.67,0.28-0.275-.11-0.542-0.22-0.8-0.34,0.227-.8.315-2.47-2.149-3.71a6.659,6.659,0,0,0-.084,2.38,7.947,7.947,0,0,1-1.1-1.02c0.537-.56,1.554-2.09-0.279-4.38a6.632,6.632,0,0,0-1.112,2.25,8.563,8.563,0,0,1-.535-1.67c-0.022-.11-0.042-0.21-0.06-0.32,0.681-.22,2.323-1.05,1.772-3.87a6.671,6.671,0,0,0-1.874,1.34,9.972,9.972,0,0,1,.342-1.93c0.648-.22,1.73-0.91,1.5-3,0,0-2.663.97-2.2,2.58a10.968,10.968,0,0,0-.266,1.12,3.735,3.735,0,0,0-1.6-1.12s-0.476,3.04,1.4,3.34a10.458,10.458,0,0,0,.132,1.58,3.536,3.536,0,0,0-2.065-.55,4.609,4.609,0,0,0-.516.02s0.922,2.71,2.618,2.71a1.856,1.856,0,0,0,.553-0.09,8.453,8.453,0,0,0,.611,1.2h0a3.459,3.459,0,0,0-.886-0.11,6.028,6.028,0,0,0-2.081.43s1.676,2.38,3.479,2.38a2.056,2.056,0,0,0,1.364-.53,11.692,11.692,0,0,0,2.716,1.69,21.8,21.8,0,0,1-2.558.58l0.131,0.77a21.137,21.137,0,0,0,3.552-.9,21.137,21.137,0,0,0,3.552.9l0.131-.77a21.8,21.8,0,0,1-2.558-.58,11.713,11.713,0,0,0,2.716-1.69,2.056,2.056,0,0,0,1.364.53c1.8,0,3.479-2.38,3.479-2.38a6.028,6.028,0,0,0-2.081-.43A3.459,3.459,0,0,0,249.217,1642.79Zm1.567-6.27a1.624,1.624,0,0,1,.4-0.56,1.817,1.817,0,0,1-.345.96,0.533,0.533,0,0,1-.158.14A1.47,1.47,0,0,1,250.784,1636.52Zm-0.319,4.02a1.957,1.957,0,0,1,1.263-.74c-0.026.04-.054,0.08-0.081,0.13a2.93,2.93,0,0,1-.641.72,1.007,1.007,0,0,1-.625.25,0.448,0.448,0,0,1-.114-0.01A1.915,1.915,0,0,1,250.465,1640.54Zm-1.449-6.71a1.435,1.435,0,0,1-.252-0.46,1.539,1.539,0,0,1,.559.67,0.5,0.5,0,0,1,.022.08A1.218,1.218,0,0,1,249.016,1633.83Zm0.524,4.75a1.746,1.746,0,0,1-.643-0.57,2.138,2.138,0,0,1-.357-1.09,2.556,2.556,0,0,1,1.007,1.23A0.825,0.825,0,0,1,249.54,1638.58Zm-12.088-.43a2.556,2.556,0,0,1,1.007-1.23,2.16,2.16,0,0,1-.356,1.09,1.746,1.746,0,0,1-.643.57A0.827,0.827,0,0,1,237.452,1638.15Zm0.225-4.11a1.573,1.573,0,0,1,.559-0.67,1.435,1.435,0,0,1-.252.46,1.233,1.233,0,0,1-.329.29A0.412,0.412,0,0,1,237.677,1634.04Zm-1.514,2.88a1.816,1.816,0,0,1-.346-0.96,1.621,1.621,0,0,1,.4.56,1.452,1.452,0,0,1,.1.54A0.541,0.541,0,0,1,236.163,1636.92Zm0.455,3.98a1,1,0,0,1-.624-0.25,2.93,2.93,0,0,1-.641-0.72c-0.028-.05-0.055-0.09-0.082-0.13a1.955,1.955,0,0,1,1.263.74,1.924,1.924,0,0,1,.2.35A0.455,0.455,0,0,1,236.618,1640.9Zm1.677,3.81a3.014,3.014,0,0,1-1.855-.96c-0.081-.07-0.157-0.15-0.23-0.22a4.183,4.183,0,0,1,.687-0.06,2.4,2.4,0,0,1,1.792.7,3.657,3.657,0,0,1,.272.33A1.193,1.193,0,0,1,238.3,1644.71Zm1.031-2.76a1.878,1.878,0,0,1-.351.87,0.9,0.9,0,0,1-.25-0.43,2.665,2.665,0,0,1,.356-1.68c0-.01.008-0.02,0.013-0.03A2.345,2.345,0,0,1,239.326,1641.95Zm2.652,3.6a0.876,0.876,0,0,1-.41-0.29,2.752,2.752,0,0,1-.383-1.7,2.387,2.387,0,0,1,.743,1.05A1.889,1.889,0,0,1,241.978,1645.55Zm3.247-.37a0.947,0.947,0,0,1-.384.33,1.947,1.947,0,0,1-.039-0.93,2.359,2.359,0,0,1,.656-1.13A2.738,2.738,0,0,1,245.225,1645.18Zm2.449-3.23a2.345,2.345,0,0,1,.232-1.27h0a2.714,2.714,0,0,1,.368,1.71,0.879,0.879,0,0,1-.251.43A1.876,1.876,0,0,1,247.674,1641.95Zm2.906,1.78a5.1,5.1,0,0,1-.952.71,1.99,1.99,0,0,1-.923.27,1.193,1.193,0,0,1-.666-0.21,3.657,3.657,0,0,1,.272-0.33,2.4,2.4,0,0,1,1.792-.7,4.192,4.192,0,0,1,.687.06C250.723,1643.6,250.653,1643.66,250.58,1643.73Z" transform="translate(-234 -1632)"/>
</svg>
